<svg xmlns="http://www.w3.org/2000/svg" xmlns:svg="http://www.w3.org/2000/svg" id="svg44" width="1191.118" height="335.509" version="1.1" viewBox="0 0 1191.118 335.509"><metadata id="metadata50"/><g id="g924" transform="translate(-222.19745,-768.66034)"><ellipse id="ellipse8" cx="817.756" cy="991.067" fill="#546e7a" opacity=".1" rx="595.559" ry="113.102" style="opacity:.321152;fill:gray;fill-opacity:1;stroke-width:1.28228"/><g id="text16" aria-label="aNimex" transform="matrix(3.9513676,0,0,3.6064059,1192.7629,1625.3423)" style="font-style:normal;font-variant:normal;font-weight:400;font-stretch:normal;font-size:78.2022px;line-height:1.25;font-family:Protoculture;-inkscape-font-specification:Protoculture;fill:#fff;fill-opacity:1;stroke:none;stroke-width:1.95506"><path style="font-style:normal;font-variant:normal;font-weight:400;font-stretch:normal;font-family:Protoculture;-inkscape-font-specification:Protoculture;fill:#fff;fill-opacity:1;stroke-width:1.95506" id="path1505" d="m -192.42763,-200.54357 -4.39124,12.63912 h -10.6917 l 13.74648,-39.71206 h 10.6917 l 13.74648,39.71206 h -10.6917 l -2.10016,-6.10955 h -7.06416 z m 7.10235,-2.63475 -3.09296,-8.97339 -3.09296,8.97339 z"/><path style="font-style:normal;font-variant:normal;font-weight:400;font-stretch:normal;font-family:Protoculture;-inkscape-font-specification:Protoculture;fill:#fff;fill-opacity:1;stroke-width:1.95506" id="path1507" d="m -166.27113,-237.54452 h 11.4554 l 21.00157,30.31863 v -30.31863 h 11.4554 v 49.64007 h -11.4554 l -21.00157,-30.31863 v 30.31863 h -11.4554 z"/><path style="font-style:normal;font-variant:normal;font-weight:400;font-stretch:normal;font-family:Protoculture;-inkscape-font-specification:Protoculture;fill:#fff;fill-opacity:1;stroke-width:1.95506" id="path1509" d="m -107.46674,-187.90445 h -9.16433 v -39.71206 h 9.16433 z"/><path style="font-style:normal;font-variant:normal;font-weight:400;font-stretch:normal;font-family:Protoculture;-inkscape-font-specification:Protoculture;fill:#fff;fill-opacity:1;stroke-width:1.95506" id="path1511" d="m -93.720262,-209.97519 v 22.07074 h -9.164318 v -39.71206 h 13.746478 l 8.400627,24.24727 8.400628,-24.24727 h 13.74648 v 39.71206 h -9.16432 v -22.07074 l -7.636934,22.07074 h -10.691707 z"/><path style="font-style:normal;font-variant:normal;font-weight:400;font-stretch:normal;font-family:Protoculture;-inkscape-font-specification:Protoculture;fill:#fff;fill-opacity:1;stroke-width:1.95506" id="path1513" d="m -23.460474,-227.61651 -4.58216,9.16433 h -25.965575 v -9.16433 z m -30.547735,15.27387 h 26.003759 v 9.16432 h -26.003759 z m 0,15.27387 h 30.547735 v 9.16432 h -30.509551 z"/><path style="font-style:normal;font-variant:normal;font-weight:400;font-stretch:normal;font-family:Protoculture;-inkscape-font-specification:Protoculture;fill:#fff;fill-opacity:1;stroke-width:1.95506" id="path1515" d="m 5.5598769,-207.76048 13.7464811,19.85603 H 8.6146504 l -8.40062712,-12.14272 -8.40062718,12.14272 H -18.878311 l 13.7464806,-19.85603 -13.7464806,-19.85603 h 10.6917071 l 8.40062718,12.14273 8.40062712,-12.14273 H 19.306358 Z"/></g></g></svg>